<svg width="200" height="60" viewBox="0 0 200 60" fill="none" xmlns="http://www.w3.org/2000/svg">
  <!-- Background circle with gradient -->
  <defs>
    <linearGradient id="gradient" x1="0%" y1="0%" x2="100%" y2="100%">
      <stop offset="0%" style="stop-color:#3B82F6;stop-opacity:1" />
      <stop offset="100%" style="stop-color:#1E40AF;stop-opacity:1" />
    </linearGradient>
    <linearGradient id="textGradient" x1="0%" y1="0%" x2="100%" y2="0%">
      <stop offset="0%" style="stop-color:#1F2937;stop-opacity:1" />
      <stop offset="100%" style="stop-color:#374151;stop-opacity:1" />
    </linearGradient>
  </defs>
  
  <!-- Logo Icon Container -->
  <rect x="4" y="4" width="52" height="52" rx="12" fill="url(#gradient)" />
  
  <!-- Database/Storage Icon -->
  <g transform="translate(12, 12)">
    <!-- Database cylinder top -->
    <ellipse cx="18" cy="8" rx="14" ry="4" fill="white" opacity="0.9"/>
    <!-- Database cylinder middle -->
    <rect x="4" y="8" width="28" height="20" fill="white" opacity="0.9"/>
    <!-- Database cylinder bottom -->
    <ellipse cx="18" cy="28" rx="14" ry="4" fill="white" opacity="0.9"/>
    
    <!-- Environment variable lines -->
    <rect x="8" y="12" width="8" height="2" rx="1" fill="#3B82F6"/>
    <rect x="18" y="12" width="12" height="2" rx="1" fill="#10B981"/>
    <rect x="8" y="16" width="6" height="2" rx="1" fill="#F59E0B"/>
    <rect x="16" y="16" width="10" height="2" rx="1" fill="#EF4444"/>
    <rect x="8" y="20" width="10" height="2" rx="1" fill="#8B5CF6"/>
    <rect x="20" y="20" width="8" height="2" rx="1" fill="#06B6D4"/>
    <rect x="8" y="24" width="12" height="2" rx="1" fill="#84CC16"/>
  </g>
  
  <!-- Secure lock indicator -->
  <g transform="translate(42, 8)">
    <rect x="0" y="4" width="8" height="6" rx="2" fill="#10B981" opacity="0.8"/>
    <path d="M2 4V2C2 0.9 2.9 0 4 0S6 0.9 6 2V4" stroke="white" stroke-width="1.5" fill="none"/>
  </g>
  
  <!-- Text -->
  <g transform="translate(68, 15)">
    <!-- ENV -->
    <text x="0" y="20" font-family="Arial, sans-serif" font-size="24" font-weight="bold" fill="url(#textGradient)">ENV</text>
    <!-- Store -->
    <text x="0" y="42" font-family="Arial, sans-serif" font-size="16" font-weight="600" fill="#6B7280">Store</text>
  </g>
  
  <!-- Decorative dots -->
  <circle cx="170" cy="15" r="2" fill="#3B82F6" opacity="0.3"/>
  <circle cx="180" cy="20" r="1.5" fill="#10B981" opacity="0.4"/>
  <circle cx="175" cy="30" r="1" fill="#F59E0B" opacity="0.5"/>
</svg>
