<svg width="300" height="80" viewBox="0 0 300 80" fill="none" xmlns="http://www.w3.org/2000/svg">
  <!-- Horizontal layout with tagline -->
  <defs>
    <linearGradient id="mainGradient" x1="0%" y1="0%" x2="100%" y2="100%">
      <stop offset="0%" style="stop-color:#3B82F6;stop-opacity:1" />
      <stop offset="100%" style="stop-color:#1E40AF;stop-opacity:1" />
    </linearGradient>
    <linearGradient id="mainTextGradient" x1="0%" y1="0%" x2="100%" y2="0%">
      <stop offset="0%" style="stop-color:#1F2937;stop-opacity:1" />
      <stop offset="100%" style="stop-color:#374151;stop-opacity:1" />
    </linearGradient>
  </defs>
  
  <!-- Logo Icon -->
  <rect x="6" y="14" width="52" height="52" rx="12" fill="url(#mainGradient)" />
  
  <!-- Database/Storage Icon -->
  <g transform="translate(14, 22)">
    <ellipse cx="18" cy="8" rx="14" ry="4" fill="white" opacity="0.9"/>
    <rect x="4" y="8" width="28" height="20" fill="white" opacity="0.9"/>
    <ellipse cx="18" cy="28" rx="14" ry="4" fill="white" opacity="0.9"/>
    
    <!-- Environment variables -->
    <rect x="8" y="12" width="8" height="2" rx="1" fill="#3B82F6"/>
    <rect x="18" y="12" width="12" height="2" rx="1" fill="#10B981"/>
    <rect x="8" y="16" width="6" height="2" rx="1" fill="#F59E0B"/>
    <rect x="16" y="16" width="10" height="2" rx="1" fill="#EF4444"/>
    <rect x="8" y="20" width="10" height="2" rx="1" fill="#8B5CF6"/>
    <rect x="20" y="20" width="8" height="2" rx="1" fill="#06B6D4"/>
    <rect x="8" y="24" width="12" height="2" rx="1" fill="#84CC16"/>
  </g>
  
  <!-- Security lock -->
  <g transform="translate(50, 18)">
    <rect x="0" y="4" width="8" height="6" rx="2" fill="#10B981" opacity="0.8"/>
    <path d="M2 4V2C2 0.9 2.9 0 4 0S6 0.9 6 2V4" stroke="white" stroke-width="1.5" fill="none"/>
  </g>
  
  <!-- Main Text -->
  <g transform="translate(80, 20)">
    <text x="0" y="25" font-family="Arial, sans-serif" font-size="32" font-weight="bold" fill="url(#mainTextGradient)">ENV Store</text>
    <text x="0" y="45" font-family="Arial, sans-serif" font-size="14" font-weight="500" fill="#6B7280">Secure Environment Variable Management</text>
  </g>
  
  <!-- Code brackets decoration -->
  <g transform="translate(270, 25)">
    <path d="M0 5L5 0L5 2L2 5L5 8L5 10L0 5Z" fill="#3B82F6" opacity="0.3"/>
    <path d="M10 5L5 0L5 2L8 5L5 8L5 10L10 5Z" fill="#3B82F6" opacity="0.3"/>
  </g>
</svg>
